<svg width="97" height="89" viewBox="0 0 97 89" fill="none" xmlns="http://www.w3.org/2000/svg">
    <path d="M57.73 62.144a46.295 46.295 0 0 1-1.14 3.798 94.098 94.098 0 0 0-16.142-.042 45.81 45.81 0 0 1-1.124-3.756h-2.082c.34 1.378.718 2.703 1.137 3.953a68.996 68.996 0 0 0-10.623 1.95 32.198 32.198 0 0 1-5.353-5.903h-2.454A33.839 33.839 0 0 0 32.227 73.62a33.948 33.948 0 0 0 32.6 0 33.838 33.838 0 0 0 12.279-11.476h-2.454a32.126 32.126 0 0 1-5.457 5.99 68.8 68.8 0 0 0-10.537-1.983 50.308 50.308 0 0 0 1.155-4.007h-2.082zm-27.982 7.48a71.483 71.483 0 0 1 9.345-1.558c1.25 3.182 2.893 5.8 4.518 7.445a32.661 32.661 0 0 1-13.863-5.887zm18.78 6.285c-2.573 0-5.233-3.018-7.325-8.035a91.35 91.35 0 0 1 14.635.033c-2.09 4.996-4.743 8.002-7.31 8.002zM67.202 69.7a32.69 32.69 0 0 1-13.757 5.81c1.617-1.638 3.253-4.242 4.502-7.403 3.117.323 6.21.855 9.255 1.593zM55.88 38.083v-8.804h-7.09a55.213 55.213 0 0 0-6.568-.52c-8.168 0-13.763 2.982-13.763 9.567 0 12.964 18.733 7.313 18.733 12.165 0 1.491-1.495 2.323-5.178 2.323-2.78 0-5.213-.59-6.256-1.144v-1.872h-7.09v8.804h7.09c2.305.306 4.626.48 6.95.52 10.74 0 14.32-4.367 14.32-9.705 0-12.893-18.906-6.967-18.906-12.13 0-1.25 1.285-2.22 4.586-2.22 2.573 0 5.04.591 6.083 1.144v1.872h7.09zM7.605 51.383v7.279h18.94v-7.279h-4.76V36.617h4.76v-7.279H7.606v7.279h4.76v14.766h-4.76zM74.652 25.856h2.454A33.84 33.84 0 0 0 64.827 14.38a33.95 33.95 0 0 0-32.6 0 33.84 33.84 0 0 0-12.278 11.476h2.453a32.217 32.217 0 0 1 5.457-5.99 68.772 68.772 0 0 0 10.537 1.983 50.204 50.204 0 0 0-1.155 4.007h2.082a46.213 46.213 0 0 1 1.14-3.798 94.37 94.37 0 0 0 16.142.043c.407 1.16.783 2.419 1.125 3.755h2.083a50.988 50.988 0 0 0-1.137-3.952 69.125 69.125 0 0 0 10.622-1.95 32.117 32.117 0 0 1 5.354 5.902zm-35.544-5.963a70.224 70.224 0 0 1-9.255-1.593 32.672 32.672 0 0 1 13.756-5.812c-1.617 1.639-3.254 4.244-4.501 7.405zm9.63.51c-2.548 0-5.072-.107-7.522-.31 2.09-4.995 4.742-8.002 7.31-8.002 2.574 0 5.234 3.02 7.325 8.035-2.324.181-4.71.277-7.113.277zm9.224-.469c-1.252-3.182-2.893-5.8-4.518-7.446a32.662 32.662 0 0 1 13.862 5.888 71.317 71.317 0 0 1-9.344 1.558zM74.377 28.76c-9.385 0-16.092 5.44-16.092 15.18 0 9.74 6.707 15.182 16.092 15.182 9.383 0 16.09-5.441 16.09-15.181 0-9.74-6.707-15.182-16.09-15.182zm0 23.464c-3.72 0-6.083-2.356-6.083-8.283s2.363-8.283 6.083-8.283c3.718 0 6.081 2.356 6.081 8.282 0 5.928-2.363 8.284-6.081 8.284z" fill="#fff"/>
</svg>
