<svg width="37" height="34" fill="none" xmlns="http://www.w3.org/2000/svg">
    <path d="m29.226 18.215-3.238-5.608a.518.518 0 0 1 .186-.704l2.078-1.2c.245-.14.559-.059.703.187l6.926 11.992c2.099 3.632.916 7.888-2.785 10.029-3.7 2.14-7.981 1.034-10.092-2.624-2.124-3.68-1.064-7.867 2.357-9.843a1164.93 1164.93 0 0 0 3.865-2.23zm-1.767 4.883c-1.992 1.153-2.59 3.459-1.441 5.45 1.153 1.993 3.45 2.629 5.442 1.48 1.971-1.136 2.544-3.433 1.395-5.425-.627-1.081-2-3.463-2-3.463l-3.396 1.958zM11.241 11.784l-3.238 5.608a.513.513 0 0 1-.704.187l-2.077-1.2a.513.513 0 0 1-.186-.703l6.922-11.992c2.098-3.633 6.375-4.739 10.075-2.598 3.705 2.136 4.883 6.396 2.772 10.05-2.123 3.68-6.282 4.853-9.702 2.882a919.134 919.134 0 0 0-3.862-2.234zm5.112-.91c1.992 1.152 4.29.516 5.443-1.48 1.153-1.992.55-4.303-1.441-5.451-1.971-1.136-4.243-.488-5.396 1.504l-2.001 3.468s2.497 1.437 3.395 1.958zM14.67 30.558l6.477-.013c.284 0 .513.23.513.513l.005 2.4a.512.512 0 0 1-.513.512L7.303 34C3.111 34.008.008 30.863 0 26.586c-.008-4.277 3.082-7.434 7.303-7.443 4.248-.009 7.35 3.001 7.359 6.947.004 1.81.004 2.887.008 4.468zm-3.352-3.967c-.005-2.302-1.709-3.972-4.01-3.968-2.302.004-3.997 1.679-3.993 3.98.004 2.276 1.708 3.917 4.01 3.913 1.25-.004 4.001-.009 4.001-.009s-.004-2.878-.008-3.916z" fill="#fff"/>
</svg>
